<svg width="353" height="295" viewBox="0 0 353 295" fill="none" xmlns="http://www.w3.org/2000/svg">
<path fill-rule="evenodd" clip-rule="evenodd" d="M92 109V185H168.5V156H156.5V173H104.5V168.5L168.5 118.5V109H92ZM104.5 152.5V121H145L104.5 152.5Z" fill="black"/>
<circle cx="115.5" cy="131.5" r="7.5" fill="black"/>
<path d="M196.5 109H184V184.5H222.5V173H196.5V153H248.5V184.5H260.5V109H222.5V121H248.5V140.5H196.5V109Z" fill="black"/>
<path d="M0 76V0H76.5V12.5L53 32.5L45 23.5L57.5 12.5H12.5V64.5H64.5V47.5H76.5V76H0Z" fill="black"/>
<path d="M184 29V0H260.5V76H248.5V32.5L188.5 76H184V64L248.5 17V12.5H196.5V29H184Z" fill="black"/>
<path d="M92 76V0H104.5V54.5L147 12.5H130.5V0H168.5V76H156V21.5L113 64.5H130.5V76H92Z" fill="black"/>
<path d="M276 76V0.5H305.5V12.5H288.5V60.5L340.5 0.5H352.5V5.5L322.5 40.5L352.5 64.5V76H348L314 50L291.5 76H276Z" fill="black"/>
<path d="M276.5 247.5V218.5H352.5V223.5L318.5 255L352.5 286.5V294.5H276.5V265.5H289V282.5H329.5L309 263.5L304 268L296 259L326 231H289V247.5H276.5Z" fill="black"/>
<path d="M0 294.5V218H76.5V294.5H64.5V230.5H12.5V294.5H0Z" fill="black"/>
<path d="M206.5 265.5L212.5 260.5L209 257.5L219 249.5L223 252.5L226.5 249.5L236 257.5L232.5 260.5L238.5 265.5L228.5 273L223 268L216.5 273L206.5 265.5Z" fill="black"/>
<path fill-rule="evenodd" clip-rule="evenodd" d="M184.5 218V294.5H260.5V218H184.5ZM196.5 230.5V282.5H248.5V230.5H196.5Z" fill="black"/>
<path fill-rule="evenodd" clip-rule="evenodd" d="M92.5 218V294.5H104.5V282H115.5L168.5 223V218H92.5ZM104.5 275.5V230.5H145L104.5 275.5Z" fill="black"/>
</svg>
